<?xml version="1.0" encoding="utf-8"?>
<svg version="1.1" id="roblox-logo-white" class="roblox-logo-white" xmlns="http://www.w3.org/2000/svg" xmlns:xlink="http://www.w3.org/1999/xlink" x="0px" y="0px"
viewBox="0 0 1301.8 226.8" style="enable-background:new 0 0 1301.8 226.8;"
	 xml:space="preserve">

	<style type="text/css">
		.st0{fill:#FFFFFF;}
	</style>
<path class="st0" d="M256.9,0l-46.4,180.4l180.4,46.4l46.4-180.4L256.9,0z M337,135.5l-35.2-9.1l9.1-35.2l35.2,9.1L337,135.5z"/>
<path class="st0" d="M121.8,20.2c47,0,67.8,28,67.8,55.8c0,17.2-7.5,31.8-21.2,41.2c20,22.8,32.2,53.5,36,89.2h-85.5
	c-3.5-49.5-14-69-36.2-69v69H0V20.2H121.8z M82.5,94.5h2.2c15,0,22.2-5.5,22.2-17.5c0-8-4-18.5-19.5-18.5h-5V94.5z"/>
<path class="st0" d="M573.1,20.2c60.2,0,72.2,30.5,72.2,52c0,15.2-5.5,29.2-24.2,40c23.5,12.5,29.2,26.8,29.2,42.8
	c0,28.8-20.2,51.5-63.8,51.5h-130V20.2H573.1z M539.1,94h2c18,0,24.8-5,24.8-18.2c0-10.2-5-18-21.8-18h-5V94z M539.1,165.5h2.5
	c19,0,26.2-5.2,26.2-19.2c0-12.2-5.8-21-23-21h-5.8V165.5z"/>
<path class="st0" d="M675.6,20.2h82.5v139.5h72.2v46.8H675.6V20.2z"/>
<path class="st0" d="M855.6,20.2v186.2h186.2V20.2H855.6z M966.9,131.5h-36.4V95.1h36.4V131.5z"/>
<path class="st0" d="M1064.1,20.2h90l27.5,34.2l26.2-34.2h89.5l-70.5,91.5l75,94.8h-90.2l-29.5-37l-28.5,37h-89.5l72.8-94.3
	L1064.1,20.2z"/>
</svg>
